<svg width="21" height="21" viewBox="0 0 21 21" fill="none" xmlns="http://www.w3.org/2000/svg">
<path d="M14.3433 12.4614C16.8641 8.90178 16.021 3.97274 12.4614 1.45252C8.90178 -1.0677 3.97274 -0.225218 1.45252 3.33501C-1.0677 6.89463 -0.225218 11.8231 3.33501 14.3433C5.8757 16.1421 9.23479 16.2806 11.9146 14.698L17.7373 20.4858C18.366 21.1476 19.412 21.1741 20.0739 20.5454C20.7357 19.9173 20.7622 18.8713 20.1341 18.2094C20.1142 18.1884 20.0949 18.1691 20.0739 18.1492L14.3433 12.4614ZM7.89308 13.001C5.08019 13.0016 2.79965 10.7228 2.79784 7.90995C2.79724 5.09705 5.07598 2.81651 7.88947 2.81531C10.6987 2.8141 12.9781 5.08923 12.9835 7.89851C12.9883 10.712 10.7108 12.9962 7.8967 13.001C7.89549 13.001 7.89489 13.001 7.89308 13.001Z" fill="#636363"/>
</svg>
